<svg width="40" height="40" viewBox="0 0 40 40" fill="none" xmlns="http://www.w3.org/2000/svg">
<g clip-path="url(#clip0_339_405)">
<rect x="2" width="36" height="2" fill="black"/>
<rect x="2" y="2" width="36" height="36" fill="#D6D5DA"/>
<rect x="4" y="4" width="32" height="32" fill="white"/>
<rect x="2" y="38" width="36" height="2" fill="black"/>
<path d="M0 0H2V40H0V0Z" fill="black"/>
<rect x="38" width="2" height="40" fill="black"/>
<path d="M13.8965 27.1875C13.5254 25.918 13.125 24.4238 12.6953 22.7051C12.3242 21.2402 11.8945 19.4531 11.4062 17.3438C10.918 15.2344 10.4004 12.8125 9.85352 10.0781C9.85352 9.88281 9.96094 9.6582 10.1758 9.4043C10.3906 9.13086 10.6445 8.87695 10.9375 8.64258C11.25 8.4082 11.5723 8.20312 11.9043 8.02734C12.2363 7.85156 12.5195 7.76367 12.7539 7.76367C12.8906 7.91992 13.0762 8.58398 13.3105 9.75586C13.4082 10.2637 13.5254 10.8984 13.6621 11.6602C13.8184 12.4219 13.9844 13.3691 14.1602 14.502C14.3359 15.6152 14.5312 16.9238 14.7461 18.4277C14.9609 19.9316 15.2051 21.6797 15.4785 23.6719C15.6738 22.3242 15.8691 21.0547 16.0645 19.8633C16.2598 18.6523 16.4355 17.5781 16.5918 16.6406C16.7871 15.5664 16.9629 14.5703 17.1191 13.6523C17.1973 13.0859 17.2852 12.4902 17.3828 11.8652C17.5 11.2207 17.6172 10.6348 17.7344 10.1074C17.8516 9.58008 17.9688 9.14062 18.0859 8.78906C18.2227 8.4375 18.3691 8.26172 18.5254 8.26172C18.6621 8.24219 18.8867 8.26172 19.1992 8.32031C19.5312 8.37891 19.8535 8.4668 20.166 8.58398C20.4785 8.68164 20.752 8.79883 20.9863 8.93555C21.2402 9.07227 21.3672 9.20898 21.3672 9.3457C21.3672 9.42383 21.2891 9.79492 21.1328 10.459C20.9961 11.123 20.791 11.9727 20.5176 13.0078C20.2637 14.0234 19.9707 15.1758 19.6387 16.4648C19.3262 17.7539 18.9844 19.0723 18.6133 20.4199C18.2617 21.748 17.9102 23.0469 17.5586 24.3164C17.207 25.5859 16.8848 26.7188 16.5918 27.7148C16.2988 28.6914 16.0449 29.4824 15.8301 30.0879C15.6348 30.6934 15.498 30.9961 15.4199 30.9961C15.3418 30.9961 15.1367 30.6543 14.8047 29.9707C14.4727 29.2676 14.1699 28.3398 13.8965 27.1875ZM21.8652 30.9082C21.8262 30.8105 21.8066 30.459 21.8066 29.8535C21.8066 29.248 21.8066 28.4863 21.8066 27.5684C21.8262 26.6504 21.8457 25.625 21.8652 24.4922C21.9043 23.3398 21.9336 22.1777 21.9531 21.0059C21.9922 19.8145 22.0312 18.6621 22.0703 17.5488C22.1094 16.416 22.1387 15.4102 22.1582 14.5312C22.1973 13.6523 22.2266 12.9395 22.2461 12.3926C22.2656 11.8262 22.2852 11.5234 22.3047 11.4844C22.3242 11.4063 22.4121 11.2109 22.5684 10.8984C22.7246 10.5859 22.9004 10.2637 23.0957 9.93164C23.3105 9.58008 23.5254 9.27734 23.7402 9.02344C23.9551 8.75 24.1406 8.62305 24.2969 8.64258C24.3555 8.66211 24.4043 9.05273 24.4434 9.81445C24.502 10.5566 24.5508 11.5137 24.5898 12.6855C24.6484 13.8574 24.6875 15.1562 24.707 16.582C24.7461 17.9883 24.7754 19.3652 24.7949 20.7129C24.834 22.041 24.8633 23.252 24.8828 24.3457C24.9023 25.4199 24.9219 26.2109 24.9414 26.7188C25.5664 26.7773 26.1914 26.8262 26.8164 26.8652C27.4609 26.9043 28.0371 26.9531 28.5449 27.0117C29.0527 27.0508 29.4629 27.0898 29.7754 27.1289C30.1074 27.168 30.2832 27.1973 30.3027 27.2168C30.3613 27.2949 30.4395 27.4805 30.5371 27.7734C30.6543 28.0469 30.7617 28.3496 30.8594 28.6816C30.957 28.9941 31.0254 29.2871 31.0645 29.5605C31.123 29.834 31.1133 30 31.0352 30.0586C28.7891 30.4688 27.0508 30.7422 25.8203 30.8789C24.5898 31.0156 23.6816 31.084 23.0957 31.084C22.4121 31.084 22.002 31.0254 21.8652 30.9082Z" fill="black"/>
</g>
<defs>
<clipPath id="clip0_339_405">
<rect width="40" height="40" fill="white"/>
</clipPath>
</defs>
</svg>
