<svg width="135" height="135" viewBox="0 0 135 135" fill="none" xmlns="http://www.w3.org/2000/svg">
<circle cx="67.5" cy="67.5" r="66.6" stroke="white" stroke-width="1.8"/>
<path d="M74.7242 32.4965L74.9951 39.5839L74.4534 39.6742C72.4219 34.1668 70.2551 32.5868 67.7271 32.5868C64.5671 32.5868 62.5357 34.8891 62.5357 38.1394C62.5357 41.5702 65.1088 43.8274 67.5917 46.3102C70.1197 48.8382 72.7831 51.6371 72.7831 56.2416C72.7831 62.3359 68.4042 65.5862 62.6259 65.5862C59.8722 65.5862 57.1637 64.8639 55.2225 63.7353L54.8614 55.8805L55.4031 55.7902C57.6151 61.9296 60.1431 64.1868 63.5288 64.1868C67.3659 64.1868 69.5779 61.1171 69.5779 57.5056C69.5779 53.7588 67.0951 51.3662 64.6122 49.0188C62.1294 46.5359 59.5562 44.0079 59.5562 39.7194C59.5562 34.0765 63.9351 31.1874 68.8105 31.1874C71.0225 31.1874 73.2345 31.7291 74.7242 32.4965ZM73.0405 64.9091V64.8188C74.3948 62.6068 74.8462 60.2593 75.704 56.5576L79.7217 37.4171C80.3988 34.3474 80.3537 32.5868 78.7737 31.0971V31.0068L84.8228 29.0657L78.7285 58.0022C78.0514 61.1171 77.8708 62.8776 78.3674 64.8188V64.9091H73.0405ZM91.3234 64.9091H86.0868L80.3085 53.3525L86.9445 46.7165C88.5245 45.0914 89.0211 43.7371 88.1634 42.7891V42.6988H94.7091V42.7891C92.1811 43.7371 90.6914 44.8656 88.028 47.5291L83.4234 52.0434L87.7571 60.6205C88.8857 62.8325 89.7434 63.9159 91.3234 64.8188V64.9091ZM99.63 37.0559C98.366 37.0559 97.2826 35.9725 97.2826 34.7085C97.2826 33.3994 98.366 32.3611 99.63 32.3611C100.939 32.3611 102.023 33.3994 102.023 34.7085C102.023 35.9725 100.939 37.0559 99.63 37.0559ZM91.5494 64.9091V64.8188C92.9489 62.6971 93.4454 60.3045 94.1677 56.5576L95.522 50.1474C96.1992 46.7616 95.5672 44.8205 94.5289 43.7822V43.6919L100.488 41.7959L97.2826 57.6411C96.5603 61.1171 96.2894 62.9679 96.8763 64.8188V64.9091H91.5494ZM99.3447 64.9091V64.8188C100.654 62.6068 101.196 60.3045 101.963 56.5576L103.317 50.1474C104.04 46.8519 103.453 44.8205 102.369 43.7822V43.6919L108.373 41.7959L105.981 52.8108C108.734 46.8068 112.346 42.0216 116.364 42.0216C119.208 42.0216 120.652 44.4594 119.704 48.7931L117.537 58.8148C116.725 62.3811 116.634 63.8256 118.937 64.5479V64.6382L112.752 65.3605L116.409 48.8834C116.905 46.6714 116.499 44.8205 114.693 44.8205C112.03 44.8205 108.87 48.6576 105.123 57.3251L104.897 58.4988C104.31 61.2073 104.13 62.8776 104.626 64.8188V64.9091H99.3447Z" fill="white"/>
<path d="M37.044 69.5015C37.044 77.6723 32.6651 85.1209 26.6611 88.4614C24.9006 89.4094 23.0949 89.9512 21.1537 90.0866C22.2823 91.17 23.456 91.9374 24.7651 92.3889C26.3451 92.9757 27.9251 93.2466 29.4149 93.2466C31.5366 93.2466 33.4326 92.7952 34.6514 92.2534L33.4326 95.5489C32.3943 96.1357 31.04 96.4517 29.3246 96.4517C24.7651 96.4517 21.876 93.9237 20.3863 91.6666C19.98 91.0797 19.664 90.5832 19.4383 90.0866C17.9937 90.0414 16.6846 89.7254 15.4657 89.1386C11.2674 87.1072 8.73944 82.4575 8.73944 76.3632C8.73944 65.5289 16.4589 55.7329 25.6229 55.7329C32.5297 55.7329 37.044 61.4209 37.044 69.5015ZM12.712 77.6723C12.712 84.218 15.1046 88.7323 20.3863 88.7323C28.3766 88.7323 33.0714 77.9883 33.0714 68.1923C33.0714 61.6466 30.6789 57.1323 25.4423 57.1323C17.3617 57.1323 12.712 67.8763 12.712 77.6723ZM48.0225 89.906L50.2345 81.4643C47.8419 86.2946 44.4562 90.1317 40.8448 90.1317C38.1362 90.1317 36.1951 87.9649 37.4139 83.4055L40.2128 72.7969C40.8899 70.2689 41.0254 68.3729 38.7231 67.3346V67.2443H44.8625L40.7094 83.27C39.9871 86.0237 40.7997 87.4683 42.4699 87.4683C45.4042 87.4683 49.1511 82.5026 52.0402 74.6026L52.5819 72.526C53.1688 70.2689 53.3494 68.2826 51.0471 67.3346V67.2443H57.1865L52.9431 83.586C52.2208 86.6557 51.9499 87.8294 54.2071 88.958V89.0483L48.0225 89.906ZM63.9255 61.6015C62.6615 61.6015 61.5781 60.518 61.5781 59.254C61.5781 57.9449 62.6615 56.9066 63.9255 56.9066C65.2346 56.9066 66.3181 57.9449 66.3181 59.254C66.3181 60.518 65.2346 61.6015 63.9255 61.6015ZM55.8449 89.4546V89.3643C57.2443 87.2426 57.7409 84.85 58.4632 81.1032L59.8175 74.6929C60.4946 71.3072 59.8626 69.366 58.8243 68.3277V68.2375L64.7832 66.3415L61.5781 82.1866C60.8558 85.6626 60.5849 87.5134 61.1718 89.3643V89.4546H55.8449ZM80.4333 83.6763L77.5893 89.4546H62.3762L62.4213 88.8677L77.9053 68.418L73.4362 68.5986C71.1339 68.734 69.0573 70.1786 66.3487 72.842L66.0327 72.6615L68.4704 67.2443H82.239V67.8763L66.7099 88.326L72.2624 88.1906C74.971 88.1454 77.4087 86.2946 80.1173 83.4506L80.4333 83.6763Z" fill="white"/>
<path d="M41.5776 100.273H40.3491V94.6628H43.459C44.258 94.6628 44.782 94.8948 45.1428 95.2728C45.4349 95.5821 45.6067 95.9858 45.6067 96.4326C45.6067 97.1542 45.16 97.7126 44.4727 98.0133L45.7872 100.273H44.3782L43.2442 98.2109H41.5776V100.273ZM43.502 95.7023H41.5776V97.1714H43.5879C44.0174 97.1714 44.3697 96.8621 44.3697 96.4326C44.3697 96.2436 44.3009 96.0718 44.1721 95.9429C43.9745 95.7281 43.7253 95.7023 43.502 95.7023ZM46.5713 97.4549C46.5713 95.8226 47.963 94.491 49.7413 94.491C51.5196 94.491 52.9457 95.8226 52.9457 97.4549C52.9457 99.1215 51.5196 100.445 49.7413 100.445C47.963 100.445 46.5713 99.1215 46.5713 97.4549ZM47.8599 97.4549C47.8599 98.5116 48.6846 99.3878 49.7413 99.3878C50.8152 99.3878 51.6571 98.5116 51.6571 97.4549C51.6571 96.4154 50.8152 95.5563 49.7413 95.5563C48.6846 95.5563 47.8599 96.4154 47.8599 97.4549ZM58.0054 94.6628H59.2425V98.2538C59.2425 99.6542 58.1601 100.445 56.6739 100.445C55.2306 100.445 54.1224 99.6542 54.1224 98.2538V94.6628H55.3594V98.2538C55.3594 98.9927 55.9522 99.3878 56.6739 99.3878C57.4384 99.3878 58.0054 98.9927 58.0054 98.2538V94.6628ZM60.2504 95.7281V94.6628H65.5424V95.7281H63.515V100.273H62.2865V95.7281H60.2504ZM67.8789 100.273H66.6504V94.6628H67.8789V100.273ZM73.5715 94.6628H74.8086V100.273H73.7433L70.8911 96.802H70.8825V100.273H69.6455V94.6628H70.7021L73.5629 98.1422H73.5715V94.6628ZM79.8741 96.8192V97.8758H77.8037V99.216H81.4463V100.273H76.5752V94.6628H81.2487V95.7281H77.8037V96.8192H79.8741ZM85.8409 100.273H84.6124V94.6628H89.2429V95.7281H85.8409V96.8621H87.9113V97.9188H85.8409V100.273ZM91.5374 100.273H90.3089V94.6628H91.5374V100.273ZM97.2301 94.6628H98.4671V100.273H97.4019L94.5497 96.802H94.5411V100.273H93.304V94.6628H94.3607L97.2215 98.1422H97.2301V94.6628ZM102.871 100.273H100.234V94.6628H102.871C103.902 94.6628 104.572 94.9549 105.07 95.4618C105.56 95.9687 105.826 96.6731 105.826 97.4635C105.826 98.2796 105.543 99.0184 105.019 99.5339C104.538 99.9892 103.928 100.273 102.871 100.273ZM101.462 99.216H102.828C103.473 99.216 103.739 99.07 104.031 98.8123C104.357 98.4858 104.546 98.0391 104.546 97.4721C104.546 96.9394 104.383 96.4927 104.074 96.1748C103.79 95.8913 103.49 95.7281 102.828 95.7281H101.462V99.216ZM110.454 96.8192V97.8758H108.384V99.216H112.026V100.273H107.155V94.6628H111.829V95.7281H108.384V96.8192H110.454ZM114.491 100.273H113.263V94.6628H116.373C117.172 94.6628 117.696 94.8948 118.056 95.2728C118.349 95.5821 118.52 95.9858 118.52 96.4326C118.52 97.1542 118.074 97.7126 117.386 98.0133L118.701 100.273H117.292L116.158 98.2109H114.491V100.273ZM116.416 95.7023H114.491V97.1714H116.502C116.931 97.1714 117.283 96.8621 117.283 96.4326C117.283 96.2436 117.215 96.0718 117.086 95.9429C116.888 95.7281 116.639 95.7023 116.416 95.7023Z" fill="white"/>
</svg>
